<?xml version="1.0" encoding="UTF-8"?>
<svg width="30px" height="30px" viewBox="0 0 30 30" version="1.1" xmlns="http://www.w3.org/2000/svg" xmlns:xlink="http://www.w3.org/1999/xlink">
    <title>home_icon_service</title>
    <defs>
        <linearGradient x1="50%" y1="0%" x2="50%" y2="100%" id="linearGradient-1">
            <stop stop-color="#1C1232" offset="0%"></stop>
            <stop stop-color="#150E25" offset="100%"></stop>
        </linearGradient>
        <rect id="path-2" x="0" y="0" width="30" height="30" rx="8"></rect>
        <filter x="-1.7%" y="-1.7%" width="103.3%" height="103.3%" filterUnits="objectBoundingBox" id="filter-3">
            <feGaussianBlur stdDeviation="0.5" in="SourceAlpha" result="shadowBlurInner1"></feGaussianBlur>
            <feOffset dx="0" dy="0" in="shadowBlurInner1" result="shadowOffsetInner1"></feOffset>
            <feComposite in="shadowOffsetInner1" in2="SourceAlpha" operator="arithmetic" k2="-1" k3="1" result="shadowInnerInner1"></feComposite>
            <feColorMatrix values="0 0 0 0 0.549019608   0 0 0 0 0.564705882   0 0 0 0 0.71372549  0 0 0 0.5 0" type="matrix" in="shadowInnerInner1"></feColorMatrix>
        </filter>
    </defs>
    <g id="主界面" stroke="none" stroke-width="1" fill="none" fill-rule="evenodd">
        <g id="首页" transform="translate(-330.000000, -51.000000)">
            <g id="导航栏" transform="translate(0.000000, 44.000000)">
                <g id="home_icon_service" transform="translate(330.000000, 7.000000)">
                    <g id="矩形">
                        <use fill="url(#linearGradient-1)" fill-rule="evenodd" xlink:href="#path-2"></use>
                        <use fill="black" fill-opacity="1" filter="url(#filter-3)" xlink:href="#path-2"></use>
                    </g>
                    <path d="M14.625,7 C16.4813176,7 18.2619529,7.60206 19.5746588,8.67374 C20.8874471,9.74541333 21.625,11.1988733 21.625,12.7142467 L21.625,19 C21.625,20.8933333 19.7443059,22.4286 17.4249176,22.4286 L16.8877294,22.4286 C16.6455294,22.7702667 16.1932471,23 15.6749341,23 L13.5749094,23 C12.80178,23 12.1748929,22.4882667 12.1748929,21.8571333 C12.1748929,21.5539333 12.3222388,21.2634 12.58506,21.0491333 C12.84756,20.8345333 13.2035059,20.7142667 13.5749094,20.7142667 L15.6749341,20.7142667 C16.1932471,20.7142667 16.6456118,20.944 16.8877294,21.2857333 L17.4250824,21.2857333 C18.9713412,21.2857333 20.2251647,20.2622 20.2251647,19 L20.2251647,18.1223333 C19.8031059,18.3211333 19.3207647,18.4285333 18.8251647,18.4285333 L18.1250824,18.4285333 C17.3519529,18.4285333 16.7250824,17.9168 16.7250824,17.2856667 L16.7250824,14.4285333 C16.7250824,13.7974 17.3519529,13.2856733 18.1250824,13.2856733 L18.8251647,13.2856733 C19.3207647,13.2856733 19.8031059,13.3930733 20.2251647,13.5919267 L20.2251647,12.71424 C20.2251647,11.5019933 19.6349412,10.3391133 18.5849412,9.48170667 C17.5346118,8.62456 16.1100706,8.14279333 14.6250824,8.14279333 C13.1400612,8.14279333 11.7155282,8.62456 10.6651988,9.48170667 C9.61518235,10.3391133 9.02501647,11.5019933 9.02501647,12.71424 L9.02501647,13.5919267 C9.44705882,13.3930733 9.92938353,13.2856733 10.4250329,13.2856733 L11.1250412,13.2856733 C11.8981706,13.2856733 12.5250576,13.7974 12.5250576,14.4285333 L12.5250576,17.2856667 C12.5250576,17.9168 11.8981706,18.4285333 11.1250412,18.4285333 L10.4250329,18.4285333 C9.68238235,18.4285333 8.97001294,18.1877333 8.44500965,17.7591333 C7.92000306,17.3306 7.625,16.7490667 7.625,16.1428 L7.625,12.7142467 C7.625,11.1988067 8.36252824,9.74535333 9.67534118,8.67374 C10.9881624,7.60206 12.7686576,7 14.625,7 Z M10,15 C9.44771525,15 9,15.4477153 9,16 C9,16.5522847 9.44771525,17 10,17 C10.5522847,17 11,16.5522847 11,16 C11,15.4477153 10.5522847,15 10,15 Z M19,15 C18.4477153,15 18,15.4477153 18,16 C18,16.5522847 18.4477153,17 19,17 C19.5522847,17 20,16.5522847 20,16 C20,15.4477153 19.5522847,15 19,15 Z" id="形状结合" fill="#7958FA"></path>
                </g>
            </g>
        </g>
    </g>
</svg>